<svg width="150" height="29" viewBox="0 0 150 29" fill="none" xmlns="http://www.w3.org/2000/svg">
<path d="M74.5884 14.7839L84.0478 28.5H0.5V0.5H84.0478L74.5884 14.2161L74.3926 14.5L74.5884 14.7839Z" fill="#F5F5F5" stroke="#BB8C5F"/>
<path d="M11.905 13.9H19.105V12.7H11.905V13.9ZM18.25 8.5V19H19.525V8.5H18.25ZM11.2 8.5V19H12.475V8.5H11.2ZM21.2477 15.55C21.2477 16.24 21.4027 16.86 21.7127 17.41C22.0327 17.95 22.4627 18.375 23.0027 18.685C23.5427 18.995 24.1477 19.15 24.8177 19.15C25.4977 19.15 26.1027 18.995 26.6327 18.685C27.1727 18.375 27.5977 17.95 27.9077 17.41C28.2277 16.86 28.3877 16.24 28.3877 15.55C28.3877 14.85 28.2277 14.23 27.9077 13.69C27.5977 13.15 27.1727 12.725 26.6327 12.415C26.1027 12.105 25.4977 11.95 24.8177 11.95C24.1477 11.95 23.5427 12.105 23.0027 12.415C22.4627 12.725 22.0327 13.15 21.7127 13.69C21.4027 14.23 21.2477 14.85 21.2477 15.55ZM22.4627 15.55C22.4627 15.07 22.5627 14.645 22.7627 14.275C22.9727 13.895 23.2527 13.6 23.6027 13.39C23.9627 13.18 24.3677 13.075 24.8177 13.075C25.2677 13.075 25.6677 13.18 26.0177 13.39C26.3777 13.6 26.6577 13.895 26.8577 14.275C27.0677 14.645 27.1727 15.07 27.1727 15.55C27.1727 16.03 27.0677 16.455 26.8577 16.825C26.6577 17.195 26.3777 17.49 26.0177 17.71C25.6677 17.92 25.2677 18.025 24.8177 18.025C24.3677 18.025 23.9627 17.92 23.6027 17.71C23.2527 17.49 22.9727 17.195 22.7627 16.825C22.5627 16.455 22.4627 16.03 22.4627 15.55ZM30.7411 15.4V16.03H32.7361C32.9661 16.03 33.1611 16.055 33.3211 16.105C33.4911 16.145 33.6261 16.21 33.7261 16.3C33.8361 16.39 33.9161 16.49 33.9661 16.6C34.0261 16.71 34.0561 16.835 34.0561 16.975C34.0561 17.245 33.9461 17.475 33.7261 17.665C33.5161 17.855 33.1861 17.95 32.7361 17.95H30.7411V19H33.0361C33.8261 19 34.3911 18.82 34.7311 18.46C35.0811 18.09 35.2561 17.645 35.2561 17.125C35.2561 16.675 35.1461 16.325 34.9261 16.075C34.7061 15.825 34.4061 15.65 34.0261 15.55C33.6461 15.45 33.2161 15.4 32.7361 15.4H30.7411ZM30.7411 15.7H32.5861C33.0161 15.7 33.4061 15.64 33.7561 15.52C34.1161 15.39 34.4061 15.2 34.6261 14.95C34.8461 14.69 34.9561 14.365 34.9561 13.975C34.9561 13.525 34.8461 13.165 34.6261 12.895C34.4061 12.615 34.1161 12.415 33.7561 12.295C33.4061 12.165 33.0161 12.1 32.5861 12.1H30.7411V13.15H32.5861C32.9461 13.15 33.2311 13.235 33.4411 13.405C33.6511 13.565 33.7561 13.78 33.7561 14.05C33.7561 14.18 33.7261 14.305 33.6661 14.425C33.6161 14.535 33.5411 14.635 33.4411 14.725C33.3411 14.815 33.2161 14.885 33.0661 14.935C32.9261 14.975 32.7661 14.995 32.5861 14.995H30.7411V15.7ZM30.0361 12.1V19H31.2361V12.1H30.0361ZM42.608 13.3L42.683 11.575L36.983 17.8L36.908 19.525L42.608 13.3ZM38.108 12.1H36.908V19.525L38.108 17.875V12.1ZM42.683 11.575L41.483 13.225V19H42.683V11.575ZM45.7118 15.925H50.8118V14.8H45.7118V15.925ZM50.0318 12.1V19H51.2318V12.1H50.0318ZM45.0068 12.1V19H46.2068V12.1H45.0068ZM53.4133 12.1V19H54.6133V12.1H53.4133ZM57.1633 12.1L54.1633 14.95L57.4633 19H58.9633L55.6633 14.95L58.6633 12.1H57.1633ZM60.6347 16.975C60.6347 16.695 60.6997 16.455 60.8297 16.255C60.9597 16.055 61.1547 15.9 61.4147 15.79C61.6847 15.68 62.0197 15.625 62.4197 15.625C62.8597 15.625 63.2547 15.685 63.6047 15.805C63.9547 15.915 64.2997 16.09 64.6397 16.33V15.625C64.5697 15.535 64.4397 15.42 64.2497 15.28C64.0597 15.13 63.8047 15 63.4847 14.89C63.1747 14.77 62.7997 14.71 62.3597 14.71C61.7597 14.71 61.2397 14.805 60.7997 14.995C60.3597 15.175 60.0197 15.435 59.7797 15.775C59.5397 16.115 59.4197 16.53 59.4197 17.02C59.4197 17.49 59.5247 17.885 59.7347 18.205C59.9547 18.515 60.2447 18.75 60.6047 18.91C60.9647 19.07 61.3597 19.15 61.7897 19.15C62.2697 19.15 62.7047 19.07 63.0947 18.91C63.4847 18.74 63.7947 18.5 64.0247 18.19C64.2647 17.87 64.3847 17.49 64.3847 17.05L64.1447 16.3C64.1447 16.73 64.0547 17.075 63.8747 17.335C63.7047 17.595 63.4647 17.785 63.1547 17.905C62.8447 18.025 62.4897 18.085 62.0897 18.085C61.8197 18.085 61.5747 18.045 61.3547 17.965C61.1347 17.875 60.9597 17.75 60.8297 17.59C60.6997 17.42 60.6347 17.215 60.6347 16.975ZM60.6347 13.72C60.7447 13.64 60.8947 13.545 61.0847 13.435C61.2847 13.315 61.5197 13.215 61.7897 13.135C62.0597 13.045 62.3597 13 62.6897 13C63.0697 13 63.4047 13.09 63.6947 13.27C63.9947 13.44 64.1447 13.7 64.1447 14.05V19H65.3447V14.05C65.3447 13.6 65.2297 13.22 64.9997 12.91C64.7797 12.6 64.4697 12.365 64.0697 12.205C63.6797 12.035 63.2197 11.95 62.6897 11.95C62.0697 11.95 61.5397 12.045 61.0997 12.235C60.6597 12.425 60.3097 12.615 60.0497 12.805L60.6347 13.72Z" fill="#BB8C5F"/>
</svg>
