<svg width="276" height="95" viewBox="0 0 276 95" fill="none" xmlns="http://www.w3.org/2000/svg">
<path d="M51.0437 74.2499V73.2088H59.5128V74.2499H55.8289V87.2239H54.7277V74.2499H51.0437ZM74.1198 87.2239L72.1777 82.5188H66.1512L64.2291 87.2239H62.9878L69.1745 72.6682L75.3611 87.2239H74.1198ZM69.1745 75.211L66.5917 81.4777H71.7572L69.1745 75.211ZM79.414 74.2499V73.2088H87.8831V74.2499H84.1992V87.2239H83.098V74.2499H79.414ZM94.0587 74.2499V73.2088H102.528V74.2499H98.8438V87.2239H97.7426V74.2499H94.0587ZM107.701 80.2163C107.701 79.1886 107.874 78.2409 108.221 77.3733C108.568 76.4923 109.055 75.7315 109.683 75.0908C110.31 74.4368 111.044 73.9296 111.885 73.5692C112.739 73.2088 113.667 73.0286 114.668 73.0286C115.669 73.0286 116.59 73.2088 117.431 73.5692C118.285 73.9296 119.026 74.4368 119.654 75.0908C120.281 75.7315 120.768 76.4923 121.115 77.3733C121.462 78.2409 121.636 79.1886 121.636 80.2163C121.636 81.2441 121.462 82.1985 121.115 83.0794C120.768 83.947 120.281 84.7078 119.654 85.3619C119.026 86.0026 118.285 86.5031 117.431 86.8635C116.59 87.2239 115.669 87.4041 114.668 87.4041C113.667 87.4041 112.739 87.2239 111.885 86.8635C111.044 86.5031 110.31 86.0026 109.683 85.3619C109.055 84.7078 108.568 83.947 108.221 83.0794C107.874 82.1985 107.701 81.2441 107.701 80.2163ZM108.862 80.2163C108.862 81.3776 109.109 82.4187 109.603 83.3397C110.11 84.2607 110.797 84.9881 111.665 85.522C112.546 86.0426 113.547 86.3029 114.668 86.3029C115.789 86.3029 116.784 86.0426 117.651 85.522C118.532 84.9881 119.22 84.2607 119.714 83.3397C120.207 82.4187 120.454 81.3776 120.454 80.2163C120.454 79.0418 120.207 78.0006 119.714 77.093C119.22 76.172 118.532 75.4512 117.651 74.9307C116.784 74.3968 115.789 74.1298 114.668 74.1298C113.547 74.1298 112.546 74.3968 111.665 74.9307C110.797 75.4512 110.11 76.172 109.603 77.093C109.109 78.0006 108.862 79.0418 108.862 80.2163ZM128.387 80.2163C128.387 79.1886 128.56 78.2409 128.908 77.3733C129.255 76.4923 129.742 75.7315 130.369 75.0908C130.996 74.4368 131.731 73.9296 132.571 73.5692C133.426 73.2088 134.353 73.0286 135.354 73.0286C136.356 73.0286 137.277 73.2088 138.117 73.5692C138.972 73.9296 139.712 74.4368 140.34 75.0908C140.967 75.7315 141.454 76.4923 141.801 77.3733C142.148 78.2409 142.322 79.1886 142.322 80.2163C142.322 81.2441 142.148 82.1985 141.801 83.0794C141.454 83.947 140.967 84.7078 140.34 85.3619C139.712 86.0026 138.972 86.5031 138.117 86.8635C137.277 87.2239 136.356 87.4041 135.354 87.4041C134.353 87.4041 133.426 87.2239 132.571 86.8635C131.731 86.5031 130.996 86.0026 130.369 85.3619C129.742 84.7078 129.255 83.947 128.908 83.0794C128.56 82.1985 128.387 81.2441 128.387 80.2163ZM129.548 80.2163C129.548 81.3776 129.795 82.4187 130.289 83.3397C130.796 84.2607 131.484 84.9881 132.351 85.522C133.232 86.0426 134.233 86.3029 135.354 86.3029C136.476 86.3029 137.47 86.0426 138.338 85.522C139.219 84.9881 139.906 84.2607 140.4 83.3397C140.894 82.4187 141.141 81.3776 141.141 80.2163C141.141 79.0418 140.894 78.0006 140.4 77.093C139.906 76.172 139.219 75.4512 138.338 74.9307C137.47 74.3968 136.476 74.1298 135.354 74.1298C134.233 74.1298 133.232 74.3968 132.351 74.9307C131.484 75.4512 130.796 76.172 130.289 77.093C129.795 78.0006 129.548 79.0418 129.548 80.2163ZM160.982 83.1795C161.209 83.7668 161.483 84.3074 161.803 84.8013C162.123 85.2818 162.524 85.6622 163.004 85.9425C163.485 86.2228 164.065 86.363 164.746 86.363C165.654 86.363 166.361 86.116 166.868 85.6222C167.389 85.1149 167.649 84.4743 167.649 83.7001C167.649 83.0194 167.496 82.4721 167.189 82.0583C166.882 81.6446 166.481 81.3109 165.988 81.0573C165.507 80.7903 165 80.5567 164.466 80.3565C164.065 80.2097 163.645 80.0362 163.205 79.8359C162.777 79.6224 162.377 79.3688 162.003 79.0751C161.629 78.7681 161.322 78.4011 161.082 77.9739C160.855 77.5468 160.742 77.0329 160.742 76.4323C160.742 75.7516 160.902 75.1576 161.222 74.6504C161.543 74.1432 161.983 73.7494 162.544 73.4691C163.118 73.1755 163.772 73.0286 164.506 73.0286C165.253 73.0286 165.894 73.1688 166.428 73.4491C166.975 73.7294 167.429 74.0831 167.789 74.5102C168.15 74.9373 168.423 75.3778 168.61 75.8316L167.649 76.3722C167.489 76.0118 167.276 75.6581 167.009 75.3111C166.742 74.964 166.401 74.6771 165.988 74.4502C165.574 74.2099 165.06 74.0898 164.446 74.0898C163.632 74.0898 163.004 74.3033 162.564 74.7305C162.123 75.1442 161.903 75.6648 161.903 76.2921C161.903 77.0663 162.183 77.6936 162.744 78.1742C163.318 78.6547 164.172 79.0951 165.307 79.4956C165.827 79.6824 166.355 79.936 166.888 80.2564C167.436 80.5767 167.89 81.0039 168.25 81.5378C168.61 82.0717 168.791 82.7524 168.791 83.58C168.791 84.3408 168.61 85.0082 168.25 85.5821C167.89 86.1561 167.402 86.6032 166.788 86.9236C166.174 87.2439 165.487 87.4041 164.726 87.4041C163.925 87.4041 163.211 87.2372 162.584 86.9035C161.97 86.5565 161.456 86.1093 161.042 85.5621C160.628 85.0015 160.308 84.3942 160.081 83.7401L160.982 83.1795ZM176.387 73.2088H177.488V79.0751H185.677V73.2088H186.798V87.2239H185.677V80.1162H177.488V87.2239H176.387V73.2088ZM194.337 80.2163C194.337 79.1886 194.51 78.2409 194.857 77.3733C195.204 76.4923 195.691 75.7315 196.319 75.0908C196.946 74.4368 197.68 73.9296 198.521 73.5692C199.375 73.2088 200.303 73.0286 201.304 73.0286C202.305 73.0286 203.226 73.2088 204.067 73.5692C204.921 73.9296 205.662 74.4368 206.29 75.0908C206.917 75.7315 207.404 76.4923 207.751 77.3733C208.098 78.2409 208.272 79.1886 208.272 80.2163C208.272 81.2441 208.098 82.1985 207.751 83.0794C207.404 83.947 206.917 84.7078 206.29 85.3619C205.662 86.0026 204.921 86.5031 204.067 86.8635C203.226 87.2239 202.305 87.4041 201.304 87.4041C200.303 87.4041 199.375 87.2239 198.521 86.8635C197.68 86.5031 196.946 86.0026 196.319 85.3619C195.691 84.7078 195.204 83.947 194.857 83.0794C194.51 82.1985 194.337 81.2441 194.337 80.2163ZM195.498 80.2163C195.498 81.3776 195.745 82.4187 196.239 83.3397C196.746 84.2607 197.433 84.9881 198.301 85.522C199.182 86.0426 200.183 86.3029 201.304 86.3029C202.425 86.3029 203.42 86.0426 204.287 85.522C205.168 84.9881 205.856 84.2607 206.35 83.3397C206.843 82.4187 207.09 81.3776 207.09 80.2163C207.09 79.0418 206.843 78.0006 206.35 77.093C205.856 76.172 205.168 75.4512 204.287 74.9307C203.42 74.3968 202.425 74.1298 201.304 74.1298C200.183 74.1298 199.182 74.3968 198.301 74.9307C197.433 75.4512 196.746 76.172 196.239 77.093C195.745 78.0006 195.498 79.0418 195.498 80.2163ZM215.824 73.2088H219.107C219.988 73.2088 220.769 73.3757 221.45 73.7094C222.144 74.0431 222.691 74.5169 223.092 75.1309C223.492 75.7449 223.692 76.4857 223.692 77.3533C223.692 78.2075 223.492 78.9483 223.092 79.5757C222.691 80.1897 222.144 80.6635 221.45 80.9972C220.769 81.3309 219.988 81.4977 219.107 81.4977H216.925V87.2239H215.824V73.2088ZM219.107 74.2499H216.925V80.4566H219.107C220.135 80.4566 220.969 80.1963 221.61 79.6758C222.251 79.1419 222.571 78.3677 222.571 77.3533C222.571 76.3389 222.251 75.5714 221.61 75.0508C220.969 74.5169 220.135 74.2499 219.107 74.2499Z" fill="#BB8C5F"/>
<path d="M0.871635 55.2986L5 59.4269L9.12836 55.2986L5 51.1702L0.871635 55.2986ZM275.128 55.2986L271 51.1702L266.872 55.2986L271 59.4269L275.128 55.2986ZM5 56.0136L271 56.0136L271 54.5835L5 54.5835L5 56.0136Z" fill="#BB8C5F"/>
<path d="M41.4535 40.571H41.668C41.8682 40.571 42.0541 40.4852 42.2258 40.3135C42.3974 40.1419 42.5404 39.9417 42.6548 39.7129C42.7978 39.4841 42.8979 39.241 42.9551 38.9835C43.0123 38.6975 43.0409 38.4401 43.0409 38.2113V15.6442L31.9719 41.4719L21.4606 16.9742V38.2113C21.4606 38.4401 21.4892 38.6975 21.5464 38.9835C21.6036 39.241 21.6894 39.4841 21.8038 39.7129C21.9468 39.9417 22.1041 40.1419 22.2758 40.3135C22.4474 40.4852 22.6476 40.571 22.8764 40.571H23.0909V41H18.4145V40.571H18.629C18.8292 40.571 19.0151 40.4852 19.1867 40.3135C19.3583 40.1419 19.5013 39.9417 19.6158 39.7129C19.7302 39.4841 19.816 39.241 19.8732 38.9835C19.9304 38.6975 19.959 38.4401 19.959 38.2113V15.3439C19.959 15.1437 19.9304 14.9148 19.8732 14.6574C19.816 14.4 19.7302 14.1569 19.6158 13.9281C19.5013 13.6992 19.3583 13.5133 19.1867 13.3703C19.0151 13.1987 18.8292 13.1129 18.629 13.1129H18.4145V12.6839H22.7906L32.7441 36.1519L42.6977 12.6839H47.5458V13.1129H47.3312C47.1024 13.1129 46.9022 13.1987 46.7306 13.3703C46.559 13.5133 46.4017 13.6992 46.2587 13.9281C46.1443 14.1569 46.0584 14.4 46.0012 14.6574C45.944 14.9148 45.9154 15.1437 45.9154 15.3439V38.2113C45.9154 38.4401 45.944 38.6975 46.0012 38.9835C46.0584 39.241 46.1443 39.4841 46.2587 39.7129C46.4017 39.9417 46.559 40.1419 46.7306 40.3135C46.9022 40.4852 47.1024 40.571 47.3312 40.571H47.5458V41H41.4535V40.571ZM57.557 40.571H57.7715V41H51.7221V40.571H51.9366C52.1368 40.571 52.3228 40.4852 52.4944 40.3135C52.666 40.1419 52.809 39.9417 52.9234 39.7129C53.0664 39.4841 53.1665 39.241 53.2237 38.9835C53.2809 38.6975 53.3095 38.4401 53.3095 38.2113V15.3439C53.3095 15.1437 53.2809 14.9148 53.2237 14.6574C53.1665 14.4 53.0664 14.1569 52.9234 13.9281C52.809 13.6992 52.666 13.5133 52.4944 13.3703C52.3228 13.1987 52.1368 13.1129 51.9366 13.1129H51.7221V12.6839H59.1873C62.0475 12.6839 64.2499 13.2416 65.7944 14.3571C67.3675 15.4726 68.1541 17.1172 68.1541 19.291C68.1541 20.3778 67.9681 21.336 67.5963 22.1655C67.2531 22.9663 66.7812 23.6671 66.1805 24.2677C65.5799 24.8398 64.8648 25.3117 64.0353 25.6835C63.2345 26.0268 62.3764 26.2842 61.4612 26.4558L64.5502 31.1752C65.2938 32.3192 66.0518 33.449 66.8241 34.5645C67.5963 35.6514 68.3543 36.7812 69.0979 37.9539C69.2981 38.2399 69.5127 38.5402 69.7415 38.8548C69.9989 39.1695 70.2563 39.4555 70.5137 39.7129C70.7998 39.9703 71.0858 40.1848 71.3718 40.3565C71.6864 40.4995 72.001 40.571 72.3157 40.571V41H70.4708C69.3267 41 68.3829 40.7283 67.6392 40.1848C66.9242 39.6128 66.3235 38.9549 65.8373 38.2113C64.5502 36.3235 63.2631 34.4072 61.976 32.4623C60.7175 30.5173 59.459 28.601 58.2005 26.7132C57.8859 26.6846 57.5427 26.656 57.1708 26.6274C56.8276 26.5702 56.4987 26.513 56.1841 26.4558V38.2113C56.1841 38.4401 56.2127 38.6975 56.2699 38.9835C56.3271 39.241 56.4129 39.4841 56.5273 39.7129C56.6703 39.9417 56.8133 40.1419 56.9563 40.3135C57.1279 40.4852 57.3281 40.571 57.557 40.571ZM56.1841 14.1426V25.04H56.3986C56.6274 25.0686 56.9849 25.0972 57.4712 25.1258C57.986 25.1258 58.6152 25.1258 59.3589 25.1258C59.9595 25.1258 60.5888 25.04 61.2466 24.8684C61.9331 24.6682 62.5623 24.3535 63.1344 23.9245C63.735 23.4669 64.2213 22.8805 64.5931 22.1655C64.9935 21.4504 65.1937 20.5495 65.1937 19.4626C65.1937 18.3757 64.9792 17.489 64.5502 16.8026C64.1498 16.1161 63.5777 15.5727 62.8341 15.1723C62.119 14.7718 61.2466 14.5001 60.217 14.3571C59.1873 14.2141 58.0575 14.1426 56.8276 14.1426H56.1841ZM75.1919 39.1552C75.1919 38.5831 75.3778 38.0969 75.7496 37.6965C76.15 37.296 76.6363 37.0958 77.2083 37.0958C77.7804 37.0958 78.2666 37.296 78.667 37.6965C79.0675 38.0969 79.2677 38.5831 79.2677 39.1552C79.2677 39.7272 79.0675 40.2134 78.667 40.6139C78.2666 40.9857 77.7804 41.1716 77.2083 41.1716C76.6363 41.1716 76.15 40.9857 75.7496 40.6139C75.3778 40.2134 75.1919 39.7272 75.1919 39.1552ZM94.6243 40.571H94.8389C95.0391 40.571 95.225 40.4852 95.3966 40.3135C95.5682 40.1419 95.7112 39.9417 95.8256 39.7129C95.9686 39.4841 96.0687 39.241 96.126 38.9835C96.1832 38.6975 96.2118 38.4401 96.2118 38.2113V15.3439C96.2118 15.1437 96.1832 14.9148 96.126 14.6574C96.0687 14.4 95.9829 14.1569 95.8685 13.9281C95.7541 13.6992 95.6111 13.5133 95.4395 13.3703C95.2679 13.1987 95.0677 13.1129 94.8389 13.1129H94.6243V12.6839H102.905C105.164 12.6839 107.195 13.0843 108.997 13.8852C110.799 14.6574 112.315 15.7157 113.545 17.06C114.803 18.3757 115.761 19.8916 116.419 21.6077C117.077 23.3239 117.406 25.1115 117.406 26.9706C117.406 28.7154 117.091 30.4315 116.462 32.119C115.833 33.778 114.889 35.2653 113.63 36.581C112.372 37.8967 110.799 38.9692 108.911 39.7987C107.023 40.5996 104.835 41 102.347 41H94.6243V40.571ZM114.489 27.6142C114.489 25.7837 114.16 24.0532 113.502 22.4229C112.844 20.7926 111.914 19.3768 110.713 18.1755C109.54 16.9456 108.139 15.9731 106.509 15.2581C104.907 14.543 103.162 14.1855 101.274 14.1855H99.0863V39.4984H101.36C102.905 39.4984 104.449 39.2696 105.994 38.8119C107.567 38.3257 108.983 37.5963 110.241 36.6239C111.5 35.6228 112.515 34.3786 113.287 32.8913C114.088 31.404 114.489 29.6449 114.489 27.6142ZM126.94 40.571H127.154V41H121.105V40.571H121.319C121.519 40.571 121.705 40.4852 121.877 40.3135C122.049 40.1419 122.192 39.9417 122.306 39.7129C122.449 39.4841 122.549 39.241 122.606 38.9835C122.663 38.6975 122.692 38.4401 122.692 38.2113V15.3439C122.692 15.1437 122.663 14.9148 122.606 14.6574C122.549 14.4 122.449 14.1569 122.306 13.9281C122.192 13.6992 122.049 13.5133 121.877 13.3703C121.705 13.1987 121.519 13.1129 121.319 13.1129H121.105V12.6839H128.57C131.43 12.6839 133.632 13.2416 135.177 14.3571C136.75 15.4726 137.537 17.1172 137.537 19.291C137.537 20.3778 137.351 21.336 136.979 22.1655C136.636 22.9663 136.164 23.6671 135.563 24.2677C134.962 24.8398 134.247 25.3117 133.418 25.6835C132.617 26.0268 131.759 26.2842 130.844 26.4558L133.933 31.1752C134.676 32.3192 135.434 33.449 136.207 34.5645C136.979 35.6514 137.737 36.7812 138.48 37.9539C138.681 38.2399 138.895 38.5402 139.124 38.8548C139.381 39.1695 139.639 39.4555 139.896 39.7129C140.182 39.9703 140.468 40.1848 140.754 40.3565C141.069 40.4995 141.384 40.571 141.698 40.571V41H139.853C138.709 41 137.765 40.7283 137.022 40.1848C136.307 39.6128 135.706 38.9549 135.22 38.2113C133.933 36.3235 132.646 34.4072 131.359 32.4623C130.1 30.5173 128.842 28.601 127.583 26.7132C127.268 26.6846 126.925 26.656 126.553 26.6274C126.21 26.5702 125.881 26.513 125.567 26.4558V38.2113C125.567 38.4401 125.595 38.6975 125.652 38.9835C125.71 39.241 125.795 39.4841 125.91 39.7129C126.053 39.9417 126.196 40.1419 126.339 40.3135C126.51 40.4852 126.711 40.571 126.94 40.571ZM125.567 14.1426V25.04H125.781C126.01 25.0686 126.367 25.0972 126.854 25.1258C127.369 25.1258 127.998 25.1258 128.741 25.1258C129.342 25.1258 129.971 25.04 130.629 24.8684C131.316 24.6682 131.945 24.3535 132.517 23.9245C133.118 23.4669 133.604 22.8805 133.976 22.1655C134.376 21.4504 134.576 20.5495 134.576 19.4626C134.576 18.3757 134.362 17.489 133.933 16.8026C133.532 16.1161 132.96 15.5727 132.217 15.1723C131.502 14.7718 130.629 14.5001 129.6 14.3571C128.57 14.2141 127.44 14.1426 126.21 14.1426H125.567ZM144.446 12.6839H150.581V13.1129H150.366C150.166 13.1129 149.98 13.1987 149.809 13.3703C149.637 13.5133 149.494 13.6992 149.38 13.9281C149.265 14.1283 149.165 14.3714 149.079 14.6574C149.022 14.9148 148.993 15.1437 148.993 15.3439V38.2113C148.993 38.4401 149.022 38.6975 149.079 38.9835C149.136 39.241 149.222 39.4841 149.337 39.7129C149.48 39.9417 149.623 40.1419 149.766 40.3135C149.937 40.4852 150.138 40.571 150.366 40.571H150.581V41H144.446V40.571H144.66C144.889 40.571 145.089 40.4995 145.261 40.3565C145.432 40.1848 145.575 39.9846 145.69 39.7558C145.833 39.4984 145.933 39.241 145.99 38.9835C146.047 38.6975 146.076 38.4401 146.076 38.2113V15.3439C146.076 15.1437 146.047 14.9148 145.99 14.6574C145.933 14.4 145.833 14.1569 145.69 13.9281C145.575 13.6992 145.432 13.5133 145.261 13.3703C145.089 13.1987 144.889 13.1129 144.66 13.1129H144.446V12.6839ZM172.082 33.4061C172.082 34.8362 171.796 36.0661 171.224 37.0958C170.652 38.0969 169.909 38.912 168.993 39.5413C168.107 40.1705 167.091 40.6282 165.947 40.9142C164.832 41.2002 163.716 41.3432 162.601 41.3432C161.457 41.3432 160.47 41.2288 159.64 41C158.811 40.7712 158.053 40.5567 157.367 40.3565C156.909 40.2134 156.494 40.099 156.122 40.0132C155.751 39.8988 155.379 39.8416 155.007 39.8416V34.9506H155.436C155.436 36.0375 155.708 36.9099 156.251 37.5677C156.823 38.197 157.481 38.6832 158.225 39.0265C158.968 39.3697 159.712 39.5985 160.456 39.7129C161.199 39.7987 161.743 39.8416 162.086 39.8416C163.316 39.8416 164.374 39.67 165.261 39.3268C166.147 38.9549 166.877 38.483 167.449 37.911C168.021 37.3103 168.436 36.6525 168.693 35.9374C168.979 35.2224 169.122 34.493 169.122 33.7494C169.122 32.8055 168.922 32.0189 168.521 31.3897C168.121 30.7318 167.592 30.1598 166.934 29.6735C166.305 29.1873 165.575 28.7726 164.746 28.4294C163.917 28.0861 163.073 27.7429 162.215 27.3997C161.242 27.0278 160.284 26.6417 159.34 26.2413C158.396 25.8409 157.553 25.3546 156.809 24.7826C156.065 24.1819 155.465 23.4812 155.007 22.6803C154.549 21.8509 154.32 20.8355 154.32 19.6342C154.32 18.3757 154.564 17.2888 155.05 16.3735C155.536 15.4297 156.18 14.6574 156.98 14.0568C157.81 13.4561 158.74 13.0128 159.769 12.7268C160.827 12.4122 161.9 12.2548 162.987 12.2548C163.731 12.2548 164.431 12.312 165.089 12.4265C165.747 12.5123 166.376 12.6267 166.977 12.7697C167.463 12.8841 167.935 12.9842 168.393 13.07C168.85 13.1272 169.294 13.1558 169.723 13.1558V17.5748H169.294C169.237 16.0875 168.65 15.0864 167.535 14.5716C166.419 14.0282 164.875 13.7565 162.901 13.7565C161.757 13.7565 160.813 13.9567 160.07 14.3571C159.354 14.7289 158.782 15.2009 158.353 15.7729C157.924 16.3163 157.624 16.917 157.452 17.5748C157.309 18.2041 157.238 18.7618 157.238 19.2481C157.238 20.0489 157.41 20.7354 157.753 21.3074C158.125 21.8795 158.611 22.38 159.211 22.809C159.812 23.2381 160.499 23.6242 161.271 23.9674C162.072 24.3106 162.901 24.6396 163.759 24.9542C164.732 25.326 165.718 25.7265 166.72 26.1555C167.721 26.5845 168.607 27.1137 169.38 27.7429C170.18 28.3722 170.824 29.1444 171.31 30.0597C171.825 30.9749 172.082 32.0904 172.082 33.4061ZM181.66 40.571H181.874V41H175.739V40.571H175.954C176.183 40.571 176.383 40.4852 176.554 40.3135C176.726 40.1419 176.869 39.9417 176.983 39.7129C177.126 39.4841 177.227 39.241 177.284 38.9835C177.341 38.6975 177.37 38.4401 177.37 38.2113V15.3439C177.37 15.1437 177.341 14.9148 177.284 14.6574C177.227 14.4 177.126 14.1569 176.983 13.9281C176.869 13.6992 176.726 13.5133 176.554 13.3703C176.383 13.1987 176.197 13.1129 175.997 13.1129H175.782V12.6839H181.917V13.1129H181.703C181.474 13.1129 181.274 13.1987 181.102 13.3703C180.931 13.5133 180.773 13.6992 180.63 13.9281C180.516 14.1569 180.416 14.4 180.33 14.6574C180.273 14.9148 180.244 15.1437 180.244 15.3439V25.2974L191.142 14.4858C191.313 14.2856 191.399 14.0568 191.399 13.7994C191.399 13.3417 191.227 13.1129 190.884 13.1129H190.67V12.6839H195.904V13.1129H195.689C195.289 13.1129 194.874 13.2559 194.445 13.5419C194.016 13.828 193.587 14.1855 193.158 14.6145L184.148 23.5813L193.63 37.9539C193.659 38.0111 193.787 38.1827 194.016 38.4687C194.245 38.7547 194.517 39.0551 194.831 39.3697C195.174 39.6843 195.546 39.9703 195.947 40.2277C196.376 40.4566 196.805 40.571 197.234 40.571V41H196.204C195.346 41 194.617 40.9571 194.016 40.8713C193.444 40.7569 192.943 40.5853 192.514 40.3565C192.085 40.1276 191.699 39.8416 191.356 39.4984C191.041 39.1552 190.712 38.7261 190.369 38.2113L182.046 25.6406L180.244 27.4855V38.2113C180.244 38.4401 180.273 38.6832 180.33 38.9406C180.416 39.1981 180.516 39.4555 180.63 39.7129C180.745 39.9417 180.888 40.1419 181.059 40.3135C181.231 40.4852 181.431 40.571 181.66 40.571ZM200.04 40.571H200.254C200.483 40.571 200.683 40.4995 200.855 40.3565C201.027 40.1848 201.17 39.9846 201.284 39.7558C201.427 39.527 201.527 39.2839 201.584 39.0265C201.67 38.769 201.713 38.5259 201.713 38.2971V15.3439C201.713 15.1437 201.67 14.9148 201.584 14.6574C201.527 14.4 201.427 14.1569 201.284 13.9281C201.17 13.6992 201.027 13.5133 200.855 13.3703C200.683 13.1987 200.483 13.1129 200.254 13.1129H200.04V12.6839H216.558V16.6739H216.129C216.071 16.016 215.814 15.444 215.356 14.9577C214.899 14.4429 214.184 14.1855 213.211 14.1855H204.588V25.04H211.71C212.367 25.04 212.911 24.8398 213.34 24.4394C213.798 24.0389 214.026 23.567 214.026 23.0235H214.455V28.3865H214.026C214.026 27.8716 213.812 27.4283 213.383 27.0565C212.954 26.6846 212.396 26.4987 211.71 26.4987H204.588V39.4984H213.983C214.527 39.4984 214.999 39.3697 215.399 39.1123C215.8 38.8548 216.129 38.5545 216.386 38.2113C216.672 37.8395 216.872 37.4533 216.987 37.0529C217.13 36.6239 217.201 36.2663 217.201 35.9803H217.63V41H200.04V40.571ZM220.863 40.571H221.078C221.306 40.571 221.507 40.4995 221.678 40.3565C221.85 40.1848 221.993 39.9846 222.107 39.7558C222.25 39.527 222.35 39.2839 222.408 39.0265C222.493 38.769 222.536 38.5259 222.536 38.2971V15.3439C222.536 15.1437 222.493 14.9148 222.408 14.6574C222.35 14.4 222.25 14.1569 222.107 13.9281C221.993 13.6992 221.85 13.5133 221.678 13.3703C221.507 13.1987 221.306 13.1129 221.078 13.1129H220.863V12.6839H227.041V13.1129H226.827C226.598 13.1129 226.398 13.1987 226.226 13.3703C226.054 13.5133 225.911 13.6992 225.797 13.9281C225.683 14.1569 225.582 14.4 225.497 14.6574C225.439 14.9148 225.411 15.1437 225.411 15.3439V39.4126H234.807C235.35 39.4126 235.822 39.2839 236.222 39.0265C236.623 38.769 236.952 38.4544 237.209 38.0826C237.495 37.6822 237.695 37.2674 237.81 36.8384C237.953 36.3808 238.024 35.966 238.024 35.5942H238.453V41H220.863V40.571ZM240.806 40.571H241.021C241.25 40.571 241.45 40.4995 241.622 40.3565C241.793 40.1848 241.936 39.9846 242.051 39.7558C242.194 39.527 242.294 39.2839 242.351 39.0265C242.437 38.769 242.48 38.5259 242.48 38.2971V15.3439C242.48 15.1437 242.437 14.9148 242.351 14.6574C242.294 14.4 242.194 14.1569 242.051 13.9281C241.936 13.6992 241.793 13.5133 241.622 13.3703C241.45 13.1987 241.25 13.1129 241.021 13.1129H240.806V12.6839H246.984V13.1129H246.77C246.541 13.1129 246.341 13.1987 246.169 13.3703C245.998 13.5133 245.855 13.6992 245.74 13.9281C245.626 14.1569 245.526 14.4 245.44 14.6574C245.383 14.9148 245.354 15.1437 245.354 15.3439V39.4126H254.75C255.293 39.4126 255.765 39.2839 256.166 39.0265C256.566 38.769 256.895 38.4544 257.152 38.0826C257.438 37.6822 257.639 37.2674 257.753 36.8384C257.896 36.3808 257.968 35.966 257.968 35.5942H258.397V41H240.806V40.571Z" fill="#BB8C5F"/>
</svg>
