<svg width="28" height="28" viewBox="0 0 28 28" fill="none" xmlns="http://www.w3.org/2000/svg">
<rect x="0.5" y="0.5" width="27" height="27" fill="#050402"/>
<path fill-rule="evenodd" clip-rule="evenodd" d="M22.7196 13.3309C22.7177 17.9198 18.9847 21.6538 14.3948 21.6556H14.3913C12.9981 21.6552 11.6291 21.3056 10.4131 20.6423L6 21.8L7.18103 17.4862C6.45251 16.2236 6.06917 14.7915 6.0698 13.3243C6.07162 8.73432 9.80614 5 14.3947 5C16.6217 5.00096 18.7119 5.86792 20.2836 7.44149C21.8553 9.01498 22.7205 11.1065 22.7196 13.3309ZM7.99877 19.8222L10.6176 19.1353L10.8702 19.2852C11.9326 19.9157 13.1504 20.2492 14.392 20.2497H14.3948C18.2085 20.2497 21.3124 17.1457 21.314 13.3304C21.3147 11.4815 20.5957 9.74314 19.2893 8.43525C17.9829 7.12736 16.2456 6.40674 14.3975 6.4061C10.5809 6.4061 7.47686 9.50982 7.47534 13.3248C7.47481 14.6322 7.84062 15.9055 8.53325 17.0071L8.69777 17.2689L7.99877 19.8222Z" fill="#BB8C5F"/>
<path d="M18.4241 15.8306C18.3721 15.7439 18.2334 15.6918 18.0254 15.5877C17.8174 15.4835 16.7948 14.9804 16.604 14.9109C16.4134 14.8415 16.2747 14.8068 16.136 15.015C15.9974 15.2232 15.5988 15.6918 15.4774 15.8306C15.3561 15.9694 15.2347 15.9868 15.0268 15.8827C14.8188 15.7786 14.1485 15.5589 13.354 14.8503C12.7356 14.2987 12.3182 13.6175 12.1968 13.4093C12.0755 13.201 12.1839 13.0885 12.288 12.9848C12.3816 12.8915 12.4961 12.7418 12.6001 12.6203C12.7041 12.4989 12.7387 12.4121 12.8081 12.2734C12.8774 12.1345 12.8427 12.0131 12.7907 11.9089C12.7387 11.8048 12.3227 10.7809 12.1494 10.3644C11.9805 9.95883 11.8091 10.0138 11.6814 10.0074C11.5602 10.0013 11.4214 10 11.2827 10C11.144 10 10.9187 10.0521 10.728 10.2603C10.5374 10.4686 10 10.9718 10 11.9956C10 13.0195 10.7453 14.0086 10.8494 14.1474C10.9534 14.2863 12.3161 16.3872 14.4028 17.2882C14.899 17.5026 15.2865 17.6306 15.5886 17.7264C16.0869 17.8848 16.5404 17.8624 16.8987 17.8088C17.2984 17.7491 18.1294 17.3057 18.3028 16.8198C18.476 16.3338 18.476 15.9174 18.4241 15.8306Z" fill="#BB8C5F"/>
<rect x="0.5" y="0.5" width="27" height="27" stroke="#BB8C5F"/>
</svg>
